# xmcd
# Track frame offsets:
# 150
# 14371
# 27434
# 44777
# 59323
# 78639
# 99021
# 112961
# 127364
# 141710
# 157985
# 166905
#
# Disc length: 2405 seconds
# Revision: 0
# Processed by: cddbd v1.4PL0 Copyright (c) Steve Scherf et al.
# Submitted via: VisiTrax 2.9.5.180 - For more info visit www.synapsa.com
#
DISCID=a509630c
DTITLE=Craig Chambers - West by southwest
DYEAR=1900
DGENRE=Western Swing
TTITLE0=Blue bluebonnet lady
TTITLE1=Full moon full of love
TTITLE2=New Mexico
TTITLE3=Panhandlin'
TTITLE4=Adobe walls
TTITLE5=High Sonoita
TTITLE6=A little further in the hole
TTITLE7=No way Jose
TTITLE8=The Texas and Pacific
TTITLE9=Nighttime on the desert/What'll I do
TTITLE10=The west is as wild as ever
TTITLE11=Ship my body back to Texas
EXTD=
EXTT0=
EXTT1=
EXTT2=
EXTT3=
EXTT4=
EXTT5=
EXTT6=
EXTT7=
EXTT8=
EXTT9=
EXTT10=
EXTT11=
PLAYORDER=
